<svg id="Layer_2" xmlns="http://www.w3.org/2000/svg" viewBox="0 0 1380.6 1051"><g id="Layer_1-2"><path d="m696.5,809.5c-18.8-11.9-34.2-36.6-34.3-55.6-.1-19,15.3-25.1,34.3-13,19,12.1,34.4,36.8,34.3,55.6-.1,18.9-15.5,25-34.3,13Zm0-62c-15.4-9.7-27.8-4.9-27.7,10.4,0,15.3,12.5,35.4,27.7,45,15.2,9.6,27.7,4.8,27.7-10.4,0-15.2-12.4-35.3-27.7-45Z" style="fill:#ccf880; stroke-width:0px;"/><path d="m696.5,853.8c-42.7-27.9-78-80.9-78.6-124.1-.6-44.1,34.7-61.7,78.6-33.1,43.9,28.6,79.2,81.5,78.6,124.1-.6,43.5-35.8,61-78.6,33.1Zm0-148.4c-39-25.2-70.3-10.4-69.8,28.7.5,38.4,31.8,86.4,69.8,111,38,24.6,69.4,9.9,69.8-28.7.5-37.9-30.9-85.8-69.8-111Z" style="fill:#ccf880; stroke-width:0px;"/><path d="m696.5,894.3c-32.3-20.8-61.6-51.1-83.2-82.4-21.6-31.7-35.4-64.3-36-97.8-.6-32.8,12.3-60.3,33.9-71.8,21.6-11.9,51.8-7.8,85.2,13.7,33.4,21.6,63.7,52.4,85.2,83.6,21.6,31.6,34.5,63.7,33.9,96.6-.6,32.2-14.4,59.2-36,70.7-21.6,11.8-50.9,8.2-83.2-12.6Zm0-233.9c-32.2-20.7-61.3-24.8-82.1-13.6-20.8,10.9-33.2,37-32.7,68.5.5,32.2,13.8,64.1,34.6,94.8,20.8,30.4,49.1,59.8,80.2,79.8,31.1,20,59.4,23.6,80.2,12.5,20.8-10.8,34.1-36.4,34.6-67.5.5-31.7-11.9-63-32.7-93.7-20.8-30.4-49.9-60.1-82.1-80.9Z" style="fill:#ccf880; stroke-width:0px;"/><path d="m696.5,940.7c-44.5-29.3-85-69.4-115-107.9-30-39.5-49.4-77.4-50.5-124.4-1.1-45.1,16.6-91.1,46.6-111.7,30-21.7,72.2-18,119,12.9,46.8,30.8,89.1,71.7,119,109.9,30,39.3,47.7,76.1,46.6,122.3-1.1,44.3-20.6,89.2-50.5,109.7-30,21.4-70.5,18.5-115-10.8Zm0-320.2c-43.6-28.6-83-32.5-111-13.6-28,18.1-44.6,59.2-43.6,101.4,1,43.8,19.1,81,47.1,119,28,37.2,65.9,75.1,107.6,102.4,41.7,27.3,79.5,30.5,107.6,11.7,28-18,46.1-58.1,47.1-99.5,1-43.1-15.6-79.3-43.6-117.2-28-37-67.4-75.6-111-104.2Z" style="fill:#ccf880; stroke-width:0px;"/><path d="m696.5,988.4c-56.9-38.5-108.8-86.6-147.4-127.5-38.6-42.9-64-78.6-65.8-139.8-1.9-57,20.6-129.8,59.2-164.6,38.6-36.9,93.4-35.8,154,5.4,60.7,41.2,115.5,90.1,154,130.4,38.7,42.4,61.1,76.2,59.2,136.9-1.9,56.4-27.3,127.4-65.8,161.7-38.7,36.4-90.5,36-147.4-2.4Zm0-420c-58.7-39.7-111.8-41.3-149.2-6.9-37.5,32.5-59.3,101.1-57.5,156.5,1.7,59.2,26.3,95.7,63.7,138.5,37.5,40.9,87.8,88.1,143,125.3,55.2,37.2,105.5,38,143,4.1,37.4-32.1,62-98.9,63.7-153.7,1.7-58.6-20-93.3-57.5-135.7-37.4-40.4-90.4-88.4-149.2-128.1Z" style="fill:#ccf880; stroke-width:0px;"/><path d="m696.5,1051c-36.5-22.7-71.3-52.2-103.3-77-32-25.3-61.1-46-86.1-63.4-49.9-35.6-83.3-58-86.4-135.4-3.1-74.2,25.3-191.6,75.4-258,25-33.3,55.2-53.7,89.2-55.6,34-2.6,71.7,13.2,111.2,37.8,39.5,24.6,77.2,55.9,111.2,81.2,34,26,64.3,46.1,89.2,62.7,50,33.5,78.5,54,75.4,131.9-3.1,74.7-36.5,190.2-86.4,254.5-25,32.5-54.1,52.3-86.1,54.9-32,3.2-66.8-10.9-103.3-33.6Zm0-529.7c-36.3-22.7-70.9-37.1-102.1-36.1-31.2.5-59.1,16.5-82,43.8-46,54.3-72.4,153-69.8,221.8,2.6,71.3,33.2,101.3,79.1,140.4,23,19.3,49.9,40.8,79.4,65.4,29.5,24.2,61.7,51.4,95.4,72.4,33.7,21,65.9,34,95.4,32.5,29.5-1.1,56.4-16.9,79.4-43.5,45.9-52.8,76.5-149.8,79.1-218.4,2.6-71.1-23.7-99.4-69.8-137.1-23-18.7-50.8-39.9-82-65.1-31.2-24.7-65.8-53.5-102.1-76.1Z" style="fill:#ccf880; stroke-width:0px;"/><rect width="1380.6" height="781.9" style="fill:none; stroke-width:0px;"/></g></svg>