<?xml version="1.0" encoding="UTF-8"?><svg id="Layer_2" xmlns="http://www.w3.org/2000/svg" viewBox="0 0 461.7 169.7"><g id="Layer_1-2"><path d="m205.9,154v12h-5v-33h11.8c6.1,0,11.4,2.8,11.4,10.2s-2.3,8.7-6.7,10l7.1,12.8h-5.6l-6.7-12h-6.5Zm6.9-4.8c4,0,6.3-2,6.3-5.7s-2.5-5.8-6.6-5.8h-6.6v11.5h6.9Z" style="fill:#ccf880; stroke-width:0px;"/><path d="m233.2,132.5c1.9,0,3.2.9,3.2,3.1s-1.3,2.8-3.2,2.8-3.2-.9-3.2-2.8,1.3-3.1,3.2-3.1Zm-2.5,9.9h4.9v23.6h-4.9v-23.6Z" style="fill:#ccf880; stroke-width:0px;"/><path d="m255.6,166h-5.3l-8.8-23.6h5.3l6.3,17.7h0l5.9-17.7h5.3l-8.8,23.6Z" style="fill:#ccf880; stroke-width:0px;"/><path d="m290,159.2c-1,4.9-5.3,7.6-10.6,7.6-7.8,0-12.4-5-12.4-12.6s4.7-12.4,11.7-12.4,11.7,4.8,11.8,12.1v1.8h-18.3c.4,4.2,2.9,6.9,7.2,6.9s5.1-1.2,6-3.4h4.6Zm-4.2-6.7c-.4-4.1-2.9-6.7-6.9-6.7s-6.2,2.7-6.7,6.7h13.6Z" style="fill:#ccf880; stroke-width:0px;"/><path d="m301,166h-5v-23.6h5v3.4c1.7-2.6,4.4-3.7,7.8-3.7v5c-4,0-7.8.9-7.8,6v12.9Z" style="fill:#ccf880; stroke-width:0px;"/><path d="m321.3,155.6c-4.9-.6-8.8-1.8-8.8-6.7s3.3-7.2,9.6-7.2,9.5,2.9,9.7,7.1h-4.4c0-1.8-1.8-3.4-5.1-3.4s-5.2,1.3-5.2,3.3,2,2.9,6.6,3.4c4.7.6,8.9,1.8,8.9,7s-4.2,7.6-10.7,7.6-9.7-2.6-9.7-8.7h4.5c0,2.8,1.9,4.8,5.7,4.8s5.8-.8,5.8-3.6-2.8-3.1-6.8-3.6Z" style="fill:#ccf880; stroke-width:0px;"/><path d="m354.8,137.7h-8.7v-4.8h22.4v4.8h-8.7v28.3h-5v-28.3Z" style="fill:#ccf880; stroke-width:0px;"/><path d="m375.8,166h-5v-23.6h5v3.4c1.7-2.6,4.4-3.7,7.8-3.7v5c-4,0-7.8.9-7.8,6v12.9Z" style="fill:#ccf880; stroke-width:0px;"/><path d="m406.1,142.4h4.9v23.6h-4.9v-3.5c-1.5,2.6-3.9,4.2-7.4,4.2-5.9,0-10-2.7-10-9.7v-14.6h4.9v13.4c0,5.1,2.7,6.8,6,6.8s6.4-2.6,6.4-7.5v-12.7Z" style="fill:#ccf880; stroke-width:0px;"/><path d="m425.5,155.6c-4.9-.6-8.8-1.8-8.8-6.7s3.3-7.2,9.6-7.2,9.5,2.9,9.7,7.1h-4.4c0-1.8-1.8-3.4-5.1-3.4s-5.2,1.3-5.2,3.3,2,2.9,6.6,3.4c4.7.6,8.9,1.8,8.9,7s-4.2,7.6-10.7,7.6-9.7-2.6-9.7-8.7h4.5c0,2.8,1.9,4.8,5.7,4.8s5.8-.8,5.8-3.6-2.8-3.1-6.8-3.6Z" style="fill:#ccf880; stroke-width:0px;"/><path d="m455.1,165.9c-1.1.5-2.7.8-4.2.8-4,0-6.6-2.5-6.6-6.7v-13.5h-3.5v-4.1h3.5v-5.2h5v5.2h5.9v4.1h-5.9v11.3c0,2.3.4,4.5,3.1,4.5s1.9-.3,2.7-.6v4.2Z" style="fill:#ccf880; stroke-width:0px;"/><polygon points="241.4 7.5 241.4 9.6 246.3 9.6 237.5 38.4 226.9 9.6 231.4 9.6 231.4 7.5 211.7 7.5 211.7 9.6 216.7 9.6 221.5 22 216.2 39.1 204.5 9.6 209.7 9.6 209.7 7.5 189.7 7.5 189.7 9.6 194.3 9.6 211.4 52.5 214.3 52.5 222.7 25.4 233 52.5 235.4 52.5 248.5 9.6 253.6 9.6 253.6 7.5 241.4 7.5" style="fill:#ccf880; stroke-width:0px;"/><path d="m281.5,41.3v.2c-.9,1.5-2.1,2.7-3.6,3.5-1.5.9-3.1,1.3-4.8,1.3s-3.2-.3-4.6-.8c-1.4-.6-2.6-1.3-3.6-2.2-1-.9-1.9-2-2.7-3.3-.8-1.2-1.3-2.5-1.7-3.9-.3-1.4-.6-2.8-.7-4.2-.1-1.3,0-2.6.2-3.9h22.5v-.3c0-2.2-.8-4.1-2.2-5.6-1.4-1.5-3.1-2.6-5.2-3.3-2.1-.6-4.4-1-7-1s-5.7.7-8.1,1.9c-2.3,1.3-4.1,3-5.3,5-1.2,2-2.1,4.3-2.6,6.8-.5,2.5-.5,5,0,7.5.6,2.5,1.5,4.7,2.6,6.8,1.2,2.1,2.9,3.7,5.2,5,2.2,1.3,4.8,1.9,7.7,1.9s6-1,8.8-2.9c2.8-1.9,4.9-4.5,6.1-7.8v-.2c0,0-1.1-.6-1.1-.6Zm-20.9-15.2c.6-1.9,1.5-3.4,2.8-4.5,1.3-1.2,3-1.8,4.9-1.8s3.6.6,4.5,1.7c.9,1.1,1.5,2.7,1.7,4.7h-13.8Z" style="fill:#ccf880; stroke-width:0px;"/><path d="m314.1,39.4c-1-1.3-2.2-2.5-3.7-3.4-1.5-.9-3.1-1.8-4.8-2.7-1.7-.9-3.3-1.7-4.7-2.5-1.4-.7-2.6-1.6-3.6-2.6-.9-1-1.4-2-1.4-3.1,0-1.7.7-3,2.1-3.9,1.4-1,3.1-1.5,5-1.5s2.3.3,3.3.8c1,.5,1.4,1.3,1.4,2.4s0,.8-.6,1.8c-.4.9-.6,1.7-.6,2.2s.2,1.5.6,2c.4.6.8,1,1.4,1.3,1.2.6,2.8.6,4.1-.1.7-.4,1.3-.9,1.7-1.7.5-.8.7-1.7.7-2.8,0-2.5-1.3-4.5-3.9-5.9-2.5-1.4-5.6-2.1-9.2-2.1s-2.7.1-4,.4c-1.3.3-2.6.7-3.8,1.2-1.2.5-2.2,1.2-3.1,1.9-.9.8-1.6,1.7-2.2,2.7-.5,1.1-.8,2.2-.8,3.4s.4,2.9,1.1,4.2c.7,1.3,1.7,2.4,2.9,3.3,1.2.9,2.5,1.7,3.9,2.5,1.4.8,2.8,1.6,4.2,2.2,1.4.7,2.6,1.4,3.8,2.1,1.1.7,2,1.5,2.7,2.3.7.8,1,1.7,1,2.6s-.5,2.2-1.6,2.9c-1.1.7-2.4,1.1-3.9,1.1s-3.4-.5-4.8-1.5c-1.4-1-2.1-2.4-2.1-4.2,0-.8-.3-1.6-.7-2.2-.4-.6-1-1.1-1.6-1.3-.6-.3-1.2-.4-1.9-.4-1,0-2,.3-2.7.9-.8.6-1.2,1.5-1.2,2.7s.4,2.4,1.3,3.5c.8,1,1.9,1.9,3.2,2.5,1.3.6,2.8,1.1,4.5,1.5,1.7.3,3.4.5,5.2.5s3.5-.2,5.2-.5c1.6-.3,3.2-.9,4.5-1.6,1.4-.7,2.5-1.6,3.3-2.8.8-1.2,1.2-2.5,1.2-4s-.5-3.1-1.5-4.5Z" style="fill:#ccf880; stroke-width:0px;"/><path d="m342,46l-.2.2c-1.1,1.4-2.1,2.3-3.1,2.9-1,.5-2,.8-3.2.8-1.6,0-2.7-.6-3.3-1.7-.6-1.2-.9-3.1-.9-5.6v-22.3h8.7v-1.9h-8.7v-10.4h-1.8v.3c-.4,3.3-1.3,5.8-2.9,7.6-1.5,1.7-3.8,2.6-6.7,2.6h-1.2v1.9h4v20.4c0,3.9.8,6.9,2.4,9,1.6,2.1,4.4,3.1,8.3,3.1s7.4-1.8,9.5-5.5v-.2c.1,0-1.1-1.2-1.1-1.2Z" style="fill:#ccf880; stroke-width:0px;"/><path d="m375,41.3v.2c-.9,1.5-2.1,2.7-3.6,3.5-1.5.9-3.1,1.3-4.8,1.3s-3.2-.3-4.6-.8c-1.4-.6-2.6-1.3-3.6-2.2-1-.9-1.9-2-2.7-3.3-.8-1.2-1.3-2.5-1.7-3.9-.3-1.4-.6-2.8-.7-4.2-.1-1.3,0-2.6.2-3.9h22.5v-.3c0-2.2-.8-4.1-2.2-5.6-1.4-1.5-3.1-2.6-5.2-3.3-2.1-.6-4.4-1-7-1s-5.7.7-8.1,1.9c-2.3,1.3-4.1,3-5.3,5-1.2,2-2.1,4.3-2.6,6.8-.5,2.5-.5,5,0,7.5.6,2.5,1.5,4.7,2.6,6.8,1.2,2.1,2.9,3.7,5.2,5,2.2,1.3,4.8,1.9,7.7,1.9s6-1,8.8-2.9c2.8-1.9,4.9-4.5,6.1-7.8v-.2c0,0-1.1-.6-1.1-.6Zm-21-15.2c.6-1.9,1.5-3.4,2.8-4.5,1.3-1.2,3-1.8,4.9-1.8s3.6.6,4.5,1.7c.9,1.1,1.5,2.7,1.7,4.7h-13.8Z" style="fill:#ccf880; stroke-width:0px;"/><path d="m410.3,21c-1.1-2.1-3.3-3.2-6.5-3.2s-7.4,1.7-11.2,4.9l-.4.3v-5.7h-1c-2.4.7-6.3,1.1-11.7,1.1h-.3v1.9h4.5v29.8h-4.5v1.9h17.5v-1.9h-4.5v-24.7c.1-.1.3-.3.7-.6.4-.4.8-.7,1-.9.3-.2.6-.5,1.1-.8.5-.4.9-.7,1.3-.9.4-.2.8-.5,1.2-.7.4-.2.8-.4,1.2-.5.9-.3,1.9-.2,2.5.2.4.3.7.6.9,1,.2.5.4.9.7,1.5.3.5.5,1,.7,1.5.3.5.7.9,1.2,1.2.6.3,1.2.5,2,.5,1.5,0,2.6-.5,3.4-1.6,1.1-1.3,1.1-2.8.3-4.4Z" style="fill:#ccf880; stroke-width:0px;"/><path d="m449.3,50.2v-20.3c0-3.9-.8-6.9-2.4-8.9-1.6-2-4.4-3.1-8.4-3.1s-4.2.5-6.4,1.5c-2,.9-3.9,1.9-5.5,3.1v-5h-1c-2.4.7-6.3,1.1-11.7,1.1h-.3v1.9h4.5v29.8h-4.5v1.9h17.5v-1.9h-4.5v-25.4c2.8-2.4,5.6-3.6,8.2-3.6,4,0,6,2.2,6,6.8v22.2h-4.5v1.9h17.5v-1.9h-4.5Z" style="fill:#ccf880; stroke-width:0px;"/><path d="m234.1,93.5c-1-1.7-2.3-3.1-3.9-4.2-1.6-1.1-3.3-2.1-5.1-3-1.9-.9-3.7-1.8-5.6-2.6-1.9-.8-3.6-1.7-5.1-2.6-1.5-.9-2.7-2-3.7-3.3-.9-1.3-1.4-2.7-1.4-4.3s.5-2.9,1.6-4.1c1.1-1.2,2.4-2.1,4-2.7,1.6-.6,3.2-.9,4.9-.9s1.8.1,2.6.3c.8.2,1.5.5,2.2.9.6.4,1.1.9,1.4,1.5.3.6.5,1.3.5,2.1s-.2,1.1-.7,2.1c-.5,1.1-.7,1.9-.7,2.5,0,1.3.4,2.4,1.3,3.1.8.7,1.9,1.1,3.1,1.1s2.6-.5,3.7-1.5c1-1,1.5-2.4,1.5-4.2s-.4-3.1-1.1-4.4c-.7-1.3-1.7-2.3-2.7-3-1.1-.7-2.4-1.3-3.9-1.7-1.5-.5-3-.8-4.4-.9-1.4-.2-2.9-.2-4.5-.2-3.1,0-6.1.5-8.7,1.5-2.7,1-4.9,2.4-6.5,4.3-1.6,1.9-2.5,4-2.5,6.3s.4,3.8,1.2,5.4c.8,1.6,1.8,3,3,4.1,1.2,1.1,2.6,2.1,4.2,3.1,1.6,1,3.2,1.8,4.8,2.5,1.6.7,3.2,1.5,4.8,2.3,1.6.8,3,1.7,4.2,2.5,1.2.8,2.1,1.8,2.8,2.9.7,1.2,1.1,2.4,1.1,3.8s-.8,3.5-2.5,4.6c-1.7,1.1-3.8,1.7-6.1,1.7s-4.7-.6-6.6-1.8c-1.8-1.2-2.7-2.7-2.7-4.7s-.5-2.6-1.4-3.4c-.9-.8-2.1-1.1-3.3-1.1s-2.2.4-3.1,1.1c-.9.7-1.3,1.8-1.3,3s.5,2.8,1.5,3.9c1,1.1,2.3,2.1,4,2.8,1.6.7,3.5,1.3,5.5,1.7,2,.4,4.2.6,6.3.6,3.2,0,6.2-.4,8.9-1.2,2.7-.8,5.1-2.1,7-4,1.9-1.9,2.9-4.1,2.9-6.7s-.5-4-1.5-5.6Z" style="fill:#ccf880; stroke-width:0px;"/><path d="m279.5,108.6c-.4,0-.7,0-1-.1-.3,0-.5-.2-.7-.3-.2-.1-.3-.3-.4-.5-.1-.3-.2-.5-.3-.7,0-.1,0-.4-.1-.9,0-.4,0-.8,0-1,0-.3,0-.7,0-1.2v-28h-1c-2.4.7-6.3,1.1-11.6,1.1h-.3v1.9h4.5v23.2c0,.3,0,.7,0,1.2,0,.4,0,.7,0,.9-2.7,2.4-5.5,3.6-8.2,3.6-4,0-6-2.2-6-6.8v-25.2h-1c-2.4.7-6.3,1.1-11.6,1.1h-.3v1.9h4.5v20.3c0,1.9.1,3.6.4,4.9.3,1.4.9,2.7,1.7,3.8.8,1.1,1.9,2,3.4,2.5,1.4.5,3.1.8,5.2.8s4.3-.5,6.6-1.5c2.1-.9,4-2,5.6-3.2.3,1.6.8,2.7,1.6,3.3.9.7,2.3,1,4.4,1s4.8,0,6.2-.2h.3v-1.9h-1.6Z" style="fill:#ccf880; stroke-width:0px;"/><path d="m312.3,97.8c-1-1.3-2.2-2.5-3.7-3.4-1.5-.9-3.1-1.8-4.8-2.7-1.7-.9-3.3-1.7-4.7-2.5-1.4-.7-2.6-1.6-3.6-2.6-.9-1-1.4-2-1.4-3.1,0-1.7.7-3,2.1-3.9,1.4-1,3.1-1.5,5-1.5s2.3.3,3.3.8c1,.5,1.4,1.3,1.4,2.4s0,.8-.6,1.8c-.4.9-.6,1.7-.6,2.2s.2,1.5.6,2c.4.6.8,1,1.4,1.3,1.2.6,2.8.6,4.1-.1.7-.4,1.3-.9,1.7-1.7.5-.8.7-1.7.7-2.8,0-2.5-1.3-4.5-3.9-5.9-2.5-1.4-5.6-2.1-9.2-2.1s-2.7.1-4,.4c-1.3.3-2.6.7-3.8,1.2-1.2.5-2.2,1.2-3.1,1.9-.9.8-1.6,1.7-2.2,2.7-.5,1.1-.8,2.2-.8,3.4s.4,2.9,1.1,4.2c.7,1.3,1.7,2.4,2.9,3.3,1.2.9,2.5,1.7,3.9,2.5,1.4.8,2.8,1.6,4.2,2.2,1.4.7,2.6,1.4,3.8,2.1,1.1.7,2,1.5,2.7,2.3.7.8,1,1.7,1,2.6s-.5,2.2-1.6,2.9c-1.1.7-2.4,1.1-3.9,1.1s-3.4-.5-4.8-1.5c-1.4-1-2.1-2.4-2.1-4.2,0-.8-.3-1.6-.7-2.2-.4-.6-1-1.1-1.6-1.3-.6-.3-1.2-.4-1.9-.4-1,0-2,.3-2.7.9-.8.6-1.2,1.5-1.2,2.7s.4,2.4,1.3,3.5c.8,1,1.9,1.9,3.2,2.5,1.3.6,2.8,1.1,4.5,1.5,1.7.3,3.4.5,5.2.5s3.5-.2,5.2-.5c1.6-.3,3.2-.9,4.5-1.6,1.4-.7,2.5-1.6,3.3-2.8.8-1.2,1.2-2.5,1.2-4s-.5-3.1-1.5-4.5Z" style="fill:#ccf880; stroke-width:0px;"/><path d="m345.6,97.8c-1-1.3-2.2-2.5-3.7-3.4-1.5-.9-3.1-1.8-4.8-2.7-1.7-.9-3.3-1.7-4.7-2.5-1.4-.7-2.6-1.6-3.6-2.6-.9-1-1.4-2-1.4-3.1,0-1.7.7-3,2.1-3.9,1.4-1,3.1-1.5,5-1.5s2.3.3,3.3.8c1,.5,1.4,1.3,1.4,2.4s0,.8-.6,1.8c-.4.9-.6,1.7-.6,2.2s.2,1.5.6,2c.4.6.8,1,1.4,1.3,1.2.6,2.8.6,4.1-.1.7-.4,1.3-.9,1.7-1.7.5-.8.7-1.7.7-2.8,0-2.5-1.3-4.5-3.9-5.9-2.5-1.4-5.6-2.1-9.2-2.1s-2.7.1-4,.4c-1.3.3-2.6.7-3.8,1.2-1.2.5-2.2,1.2-3.1,1.9-.9.8-1.6,1.7-2.2,2.7-.5,1.1-.8,2.2-.8,3.4s.4,2.9,1.1,4.2c.7,1.3,1.7,2.4,2.9,3.3,1.2.9,2.5,1.7,3.9,2.5,1.4.8,2.8,1.6,4.2,2.2,1.4.7,2.6,1.4,3.8,2.1,1.1.7,2,1.5,2.7,2.3.7.8,1,1.7,1,2.6s-.5,2.2-1.6,2.9c-1.1.7-2.4,1.1-3.9,1.1s-3.4-.5-4.8-1.5c-1.4-1-2.1-2.4-2.1-4.2,0-.8-.3-1.6-.7-2.2-.4-.6-1-1.1-1.6-1.3-.6-.3-1.2-.4-1.9-.4-1,0-2,.3-2.7.9-.8.6-1.2,1.5-1.2,2.7s.4,2.4,1.3,3.5c.8,1,1.9,1.9,3.2,2.5,1.3.6,2.8,1.1,4.5,1.5,1.7.3,3.4.5,5.2.5s3.5-.2,5.2-.5c1.6-.3,3.2-.9,4.5-1.6,1.4-.7,2.5-1.6,3.3-2.8.8-1.2,1.2-2.5,1.2-4s-.5-3.1-1.5-4.5Z" style="fill:#ccf880; stroke-width:0px;"/><path d="m381.7,99.7v.2c-.9,1.5-2.1,2.7-3.6,3.5-1.5.9-3.1,1.3-4.8,1.3s-3.2-.3-4.6-.8c-1.4-.6-2.6-1.3-3.6-2.2-1-.9-1.9-2-2.7-3.3-.8-1.2-1.3-2.5-1.7-3.9-.3-1.4-.6-2.8-.7-4.2-.1-1.3,0-2.6.2-3.9h22.5v-.3c0-2.2-.8-4.1-2.2-5.6-1.4-1.5-3.1-2.6-5.2-3.3-2.1-.6-4.4-1-6.9-1s-5.7.7-8.1,1.9c-2.3,1.3-4.1,3-5.3,5-1.2,2-2.1,4.3-2.6,6.8-.5,2.5-.5,5,0,7.5.6,2.5,1.5,4.7,2.6,6.8,1.2,2.1,2.9,3.7,5.2,5,2.2,1.3,4.8,1.9,7.7,1.9s6-1,8.8-2.9c2.8-1.9,4.9-4.5,6.1-7.8v-.2c0,0-1.1-.6-1.1-.6Zm-20.9-15.2c.6-1.9,1.5-3.4,2.8-4.5,1.3-1.2,3-1.8,4.9-1.8s3.6.6,4.5,1.7c.9,1.1,1.5,2.7,1.7,4.7h-13.8Z" style="fill:#ccf880; stroke-width:0px;"/><polygon points="423.1 78.8 423.1 76.9 412.9 76.9 412.9 78.8 416.6 78.8 407.6 91.1 398.9 78.8 401.5 78.8 401.5 76.9 385.3 76.9 385.3 78.8 388.5 78.8 399.5 94.3 389.4 108.6 385.3 108.6 385.3 110.5 395.4 110.5 395.4 108.6 391.8 108.6 400.7 95.9 409.8 108.6 407.6 108.6 407.6 110.5 423.1 110.5 423.1 108.6 420.3 108.6 408.8 92.7 419 78.8 423.1 78.8" style="fill:#ccf880; stroke-width:0px;"/><path d="m12.7,109.9c17.6,21.2,52.4,37.1,69,6.4.4-.9,1-1.3,0-1.5-2.4-.6-5-1.1-7.3-1.8-16-5-23.4-11-29.5-22.4-9.9-18.9,1.1-34.7,13.4-38.1,18.5-4.8,37.4,9,42,29.5,1.3,5.1,1.8,10.4,1.8,15.5,0,.4,0,.8.3,1,.3.4,1.1.3,1.6.1,9.8-3.2,15.9-10.9,15.4-21.1-.2-4.3-1.2-8.5-3.6-11.9-6.9-9.9-23.1-15.4-33.8-21.5-18.4-9.1-19.4-30.9-3.5-41,2.6-1.7,5-2.5,7.2-3.1-2.2,0-4.5-.1-6.8,0C44.3,1.4,15.3,23.5,3.3,53.9c-3.5,10.8-8.2,34.6,9.4,56Z" style="fill:#ccf880; stroke-width:0px;"/><path d="m73.6,72.2c-6.8-3.7-12.3,2.3-11.2,9.2h0c1.4,6,5.6,10.9,10.9,14.1,3.2,1.9,7.1,3.5,11.3,4.2,1.8.1,1-3.7,1.2-5-.2-8.4-4.2-18.1-12.1-22.4Z" style="fill:#ccf880; stroke-width:0px;"/><path d="m167.2,81.6c-1.2-32.1-20.1-59.3-47-72.7-9.1-3.3-19.3-3.7-25.3,1.9-4.1,3.6-4.4,7.6-4.3,10.6.3,7.1,9.4,11.5,19,15.2,8.8,3.4,18.4,7.9,23.7,11.8h.1c15.6,10.8,17.4,24.4,14.4,38.2-3.2,15-20.7,27.5-40.8,29-2.2.4-4.5,0-6.5.8-.5.3-.7.9-.9,1.5-.7,2.9-1.4,5.4-2.2,8.1-5.8,16.9-15.6,35.4-32.7,42.1,6.7,1.4,13.6,2,20.8,1.8,46.8-1.8,83.3-41.3,81.5-88.1Z" style="fill:#ccf880; stroke-width:0px;"/></g></svg>