<?xml version="1.0" encoding="UTF-8"?>
<svg id="Layer_2" data-name="Layer 2" xmlns="http://www.w3.org/2000/svg" viewBox="0 0 476.07 182.84">
  <g id="Layer_1-2" data-name="Layer 1">
    <g>
      <path d="M13.67,118.48c19,22.9,56.5,40,74.4,6.9.4-1,1-1.4.1-1.6-2.6-.7-5.4-1.2-7.9-1.9-17.2-5.4-25.3-11.8-31.8-24.1-10.7-20.4,1.2-37.5,14.5-41.1,19.9-5.1,40.3,9.7,45.3,31.8,1.4,5.5,2,11.2,1.9,16.7,0,.5.1.9.3,1.1.4.5,1.2.3,1.8.2,10.6-3.4,17.1-11.8,16.6-22.8-.2-4.7-1.3-9.1-3.9-12.9-7.4-10.7-25-16.6-36.5-23.2-19.8-9.8-20.9-33.3-3.8-44.2,2.8-1.8,5.4-2.7,7.7-3.3-2.4-.1-4.9-.1-7.3,0C47.77,1.48,16.47,25.28,3.57,58.08c-3.8,11.7-8.8,37.3,10.1,60.4Z" style="fill: #c9f57e; stroke-width: 0px;"/>
      <path d="M79.37,77.78c-7.4-4-13.2,2.5-12,9.9v.1c1.5,6.3,6,11.7,11.7,15,3.4,2,7.7,3.8,12.1,4.5,1.9.1,1.1-4,1.3-5.4-.2-8.9-4.6-19.4-13.1-24.1Z" style="fill: #c9f57e; stroke-width: 0px;"/>
      <path d="M180.27,87.88c-1.3-34.6-21.7-64-50.7-78.4-9.9-3.6-20.8-4-27.2,2-4.4,3.9-4.7,8.2-4.6,11.4.3,7.6,10.1,12.4,20.5,16.4,9.5,3.7,19.9,8.5,25.6,12.7l.1.1c16.8,11.5,18.8,26.2,15.6,41-3.5,16.2-22.3,29.7-44,31.2-2.4.4-4.9-.1-7,.9-.5.3-.8,1-.9,1.6-.7,3.1-1.5,5.8-2.4,8.7-6.2,18.2-16.9,38.2-35.3,45.4,7.2,1.5,14.7,2.2,22.4,1.9,50.5-1.8,89.8-44.3,87.9-94.9Z" style="fill: #c9f57e; stroke-width: 0px;"/>
    </g>
    <g>
      <g>
        <path d="M223.77,154.18v12.1h-5v-33.4h12c6.2,0,11.5,2.9,11.5,10.4,0,5.1-2.3,8.8-6.7,10.1l7.2,13h-5.7l-6.7-12.1h-6.6v-.1ZM230.77,149.28c4,0,6.4-2.1,6.4-5.7s-2.6-5.9-6.6-5.9h-6.7v11.6h6.9Z" style="fill: #c9f57e; stroke-width: 0px;"/>
        <path d="M251.37,132.38c1.9,0,3.2,1,3.2,3.1,0,1.9-1.3,2.9-3.2,2.9s-3.2-1-3.2-2.9c-.1-2.1,1.3-3.1,3.2-3.1ZM248.77,142.38h5v23.9h-5v-23.9Z" style="fill: #c9f57e; stroke-width: 0px;"/>
        <path d="M274.07,166.28h-5.4l-8.9-23.9h5.4l6.4,17.9h0l6-17.9h5.4l-8.9,23.9Z" style="fill: #c9f57e; stroke-width: 0px;"/>
        <path d="M308.87,159.38c-1,5-5.4,7.6-10.8,7.6-7.9,0-12.6-5-12.6-12.8s4.8-12.6,11.8-12.6,11.8,4.9,11.9,12.2v1.9h-18.5c.4,4.3,3,7,7.3,7,2.8,0,5.2-1.2,6.1-3.4h4.8v.1ZM304.57,152.58c-.4-4.2-2.9-6.7-7-6.7s-6.3,2.7-6.8,6.7h13.8Z" style="fill: #c9f57e; stroke-width: 0px;"/>
        <path d="M319.97,166.28h-5.1v-23.9h5.1v3.4c1.7-2.7,4.5-3.7,7.9-3.7v5c-4.1,0-7.9,1-7.9,6.1v13.1Z" style="fill: #c9f57e; stroke-width: 0px;"/>
        <path d="M340.57,155.78c-5-.6-8.9-1.9-8.9-6.8,0-4.4,3.3-7.3,9.7-7.3,7.2,0,9.7,2.9,9.8,7.2h-4.4c0-1.8-1.9-3.5-5.2-3.5s-5.3,1.3-5.3,3.3c0,2.3,2.1,2.9,6.6,3.5,4.8.6,9,1.8,9,7.1s-4.3,7.7-10.8,7.7c-5.5,0-9.8-2.6-9.8-8.8h4.5c0,2.8,1.9,4.9,5.7,4.9,2.7,0,5.8-.8,5.8-3.7.1-2.7-2.7-3.1-6.7-3.6Z" style="fill: #c9f57e; stroke-width: 0px;"/>
        <path d="M374.47,137.68h-8.8v-4.8h22.6v4.8h-8.8v28.6h-5v-28.6h0Z" style="fill: #c9f57e; stroke-width: 0px;"/>
        <path d="M395.77,166.28h-5.1v-23.9h5.1v3.4c1.7-2.7,4.5-3.7,7.9-3.7v5c-4.1,0-7.9,1-7.9,6.1v13.1Z" style="fill: #c9f57e; stroke-width: 0px;"/>
        <path d="M426.37,142.38h5v23.9h-5v-3.5c-1.5,2.6-4,4.3-7.5,4.3-6,0-10.1-2.8-10.1-9.8v-14.8h5v13.6c0,5.2,2.7,6.9,6.1,6.9,4.1,0,6.5-2.7,6.5-7.5v-13.1Z" style="fill: #c9f57e; stroke-width: 0px;"/>
        <path d="M445.97,155.78c-5-.6-8.9-1.9-8.9-6.8,0-4.4,3.3-7.3,9.7-7.3,7.2,0,9.7,2.9,9.8,7.2h-4.4c0-1.8-1.9-3.5-5.2-3.5s-5.3,1.3-5.3,3.3c0,2.3,2.1,2.9,6.6,3.5,4.8.6,9,1.8,9,7.1s-4.3,7.7-10.8,7.7c-5.5,0-9.8-2.6-9.8-8.8h4.5c0,2.8,1.9,4.9,5.7,4.9,2.7,0,5.8-.8,5.8-3.7.2-2.7-2.7-3.1-6.7-3.6Z" style="fill: #c9f57e; stroke-width: 0px;"/>
        <path d="M475.97,166.18c-1.1.5-2.8.8-4.3.8-4.1,0-6.6-2.5-6.6-6.8v-13.7h-3.6v-4.2h3.6v-5.3h5v5.3h6v4.2h-6v11.4c0,2.3.4,4.6,3.1,4.6.9,0,2-.3,2.8-.6v4.3h0Z" style="fill: #c9f57e; stroke-width: 0px;"/>
      </g>
      <polygon points="255.17 15.58 255.17 17.58 259.87 17.58 251.57 44.68 241.57 17.58 245.77 17.58 245.77 15.58 227.27 15.58 227.27 17.58 231.97 17.58 236.47 29.28 231.47 45.38 220.47 17.58 225.37 17.58 225.37 15.58 206.57 15.58 206.57 17.58 210.87 17.58 226.97 57.98 229.67 57.98 237.57 32.48 247.27 57.98 249.57 57.98 261.87 17.58 266.67 17.58 266.67 15.58 255.17 15.58" style="fill: #c9f57e; stroke-width: 0px;"/>
      <path d="M293.07,47.38l-.1.2c-.8,1.4-1.8,2.5-3.2,3.3-1.4.8-2.9,1.2-4.5,1.2-1.5,0-3-.3-4.3-.8s-2.5-1.2-3.4-2.1-1.8-1.9-2.5-3.1c-.7-1.1-1.3-2.4-1.6-3.7-.3-1.3-.5-2.6-.7-4-.1-1.3-.1-2.5.2-3.6h21.2v-.3c0-2.1-.7-3.8-2-5.3-1.3-1.4-3-2.5-4.9-3.1s-4.1-.9-6.6-.9c-2.8,0-5.4.6-7.6,1.8-2.2,1.2-3.9,2.8-5,4.7-1.1,1.9-1.9,4.1-2.4,6.4s-.5,4.7.1,7c.5,2.3,1.4,4.5,2.5,6.4s2.8,3.5,4.9,4.7,4.5,1.8,7.2,1.8c2.9,0,5.7-.9,8.3-2.7,2.7-1.8,4.6-4.3,5.7-7.4l.1-.2-1.4-.3ZM273.27,33.08c.6-1.8,1.4-3.2,2.6-4.3,1.2-1.1,2.8-1.7,4.6-1.7,1.9,0,3.4.5,4.2,1.6.8,1,1.4,2.5,1.6,4.4h-13Z" style="fill: #c9f57e; stroke-width: 0px;"/>
      <path d="M323.67,45.58c-.9-1.3-2.1-2.3-3.5-3.2-1.4-.8-2.9-1.7-4.5-2.5s-3.1-1.6-4.5-2.3c-1.3-.7-2.5-1.5-3.4-2.5-.9-.9-1.3-1.9-1.3-2.9,0-1.6.7-2.8,2-3.7,1.4-.9,2.9-1.4,4.7-1.4,1.1,0,2.1.3,3.1.8.9.5,1.4,1.2,1.4,2.3,0,.2-.1.7-.5,1.7-.4.9-.6,1.6-.6,2.1,0,.7.2,1.4.5,1.9s.8.9,1.3,1.2c1.1.6,2.6.5,3.8-.1.6-.3,1.2-.9,1.6-1.6s.7-1.6.7-2.6c0-2.3-1.2-4.2-3.7-5.6-2.4-1.3-5.3-2-8.6-2-1.3,0-2.5.1-3.8.4-1.2.3-2.4.6-3.5,1.1s-2.1,1.1-2.9,1.8c-.9.7-1.6,1.6-2,2.6-.5,1-.7,2.1-.7,3.2,0,1.4.4,2.8,1.1,4s1.6,2.2,2.7,3.1c1.1.8,2.3,1.6,3.7,2.4,1.3.8,2.6,1.5,3.9,2.1,1.3.7,2.5,1.3,3.6,2,1.1.6,1.9,1.4,2.6,2.2.6.8,1,1.6,1,2.5,0,1.2-.5,2.1-1.5,2.8-1,.7-2.2,1-3.7,1-1.7,0-3.3-.5-4.6-1.4-1.3-.9-1.9-2.2-2-4,0-.8-.3-1.5-.7-2.1-.4-.6-.9-1-1.5-1.3-.6-.2-1.2-.4-1.8-.4-1,0-1.9.3-2.6.9s-1.1,1.5-1.1,2.5c0,1.2.4,2.3,1.2,3.3.8,1,1.8,1.8,3.1,2.4,1.2.6,2.7,1.1,4.2,1.4,1.6.3,3.2.5,4.9.5s3.3-.2,4.9-.5c1.5-.3,3-.8,4.3-1.5s2.3-1.6,3.1-2.7c.8-1.1,1.1-2.4,1.1-3.8-.1-1.3-.5-2.8-1.5-4.1Z" style="fill: #c9f57e; stroke-width: 0px;"/>
      <path d="M349.97,51.88l-.2.2c-1,1.3-2,2.2-2.9,2.7s-1.9.8-3,.8c-1.5,0-2.6-.5-3.1-1.6-.6-1.1-.8-2.9-.8-5.2v-21h8.2v-1.8h-8.2v-9.8h-1.7v.2c-.3,3.1-1.2,5.5-2.7,7.2-1.4,1.6-3.5,2.5-6.3,2.5h-1.1v1.8h3.8v19.2c0,3.7.8,6.5,2.2,8.4,1.5,1.9,4.2,2.9,7.9,2.9,3.9,0,6.9-1.7,8.9-5.2l.1-.2-1.1-1.1Z" style="fill: #c9f57e; stroke-width: 0px;"/>
      <path d="M381.17,47.38l-.1.2c-.8,1.4-1.8,2.5-3.2,3.3-1.4.8-2.9,1.2-4.5,1.2-1.5,0-3-.3-4.3-.8s-2.5-1.2-3.4-2.1-1.8-1.9-2.5-3.1c-.7-1.1-1.3-2.4-1.6-3.7-.3-1.3-.5-2.6-.7-4-.1-1.3-.1-2.5.2-3.6h21.2v-.3c0-2.1-.7-3.8-2-5.3-1.3-1.4-3-2.5-4.9-3.1s-4.1-.9-6.6-.9c-2.8,0-5.4.6-7.6,1.8-2.2,1.2-3.9,2.8-5,4.7-1.1,1.9-1.9,4.1-2.4,6.4s-.5,4.7.1,7c.5,2.3,1.4,4.5,2.5,6.4s2.8,3.5,4.9,4.7,4.5,1.8,7.2,1.8c2.9,0,5.7-.9,8.3-2.7,2.7-1.8,4.6-4.3,5.7-7.4l.1-.2-1.4-.3ZM361.37,33.08c.6-1.8,1.4-3.2,2.6-4.3,1.2-1.1,2.8-1.7,4.6-1.7,1.9,0,3.4.5,4.2,1.6.8,1,1.4,2.5,1.6,4.4h-13Z" style="fill: #c9f57e; stroke-width: 0px;"/>
      <path d="M414.47,28.28c-1-2-3.1-3-6.2-3-3.4,0-7,1.6-10.6,4.7l-.4.3v-5.4h-1c-2.3.7-6,1-11,1h-.3v1.8h4.2v28.1h-4.2v1.8h16.6v-1.8h-4.2v-23.2c.1-.1.3-.3.6-.6.4-.4.7-.6,1-.8.2-.2.6-.5,1-.8s.8-.6,1.2-.8c.3-.2.7-.5,1.2-.7.4-.2.8-.4,1.2-.5.9-.3,1.7-.2,2.3.2.4.3.6.6.8,1,.2.4.4.9.6,1.4s.5,1,.7,1.4c.3.4.6.8,1.2,1.1.5.3,1.2.5,1.9.5,1.4,0,2.5-.5,3.2-1.5.9-1.3,1-2.7.2-4.2Z" style="fill: #c9f57e; stroke-width: 0px;"/>
      <path d="M451.17,55.88v-19.2c0-3.7-.7-6.5-2.2-8.4s-4.1-2.9-7.9-2.9c-1.9,0-4,.5-6.1,1.4-1.9.8-3.6,1.8-5.2,2.9v-4.8h-1c-2.3.7-6,1-11,1h-.2v1.8h4.2v28.1h-4.2v1.8h16.5v-1.8h-4.2v-23.9c2.7-2.2,5.3-3.4,7.7-3.4,3.8,0,5.7,2.1,5.7,6.4v21h-4.3v1.8h16.5v-1.8h-4.3Z" style="fill: #c9f57e; stroke-width: 0px;"/>
      <path d="M248.37,96.68c-.9-1.6-2.2-2.9-3.6-3.9-1.5-1-3.1-2-4.8-2.8-1.7-.9-3.5-1.7-5.3-2.5s-3.4-1.6-4.8-2.5c-1.4-.8-2.6-1.9-3.4-3.1-.9-1.2-1.3-2.6-1.3-4,0-1.5.5-2.8,1.5-3.9s2.3-2,3.7-2.5c1.5-.5,3-.8,4.6-.8.9,0,1.7.1,2.5.3.8.2,1.4.5,2.1.9.6.4,1,.8,1.4,1.4.3.6.5,1.3.5,2,0,.4-.2,1.1-.6,2-.4,1-.7,1.8-.7,2.4,0,1.3.4,2.3,1.2,3,.8.7,1.8,1,2.9,1,1.3,0,2.5-.5,3.5-1.4s1.5-2.3,1.5-3.9c0-1.5-.4-2.9-1-4.1-.7-1.2-1.6-2.1-2.6-2.8-1-.7-2.3-1.2-3.7-1.6-1.4-.4-2.8-.7-4.2-.9-1.3-.1-2.7-.2-4.2-.2-2.9,0-5.7.5-8.2,1.4s-4.6,2.3-6.1,4c-1.5,1.8-2.3,3.8-2.3,6,0,1.9.4,3.6,1.1,5.1s1.7,2.8,2.9,3.8c1.2,1,2.5,2,4,2.9s3,1.7,4.5,2.4,3.1,1.4,4.5,2.2c1.5.8,2.8,1.6,3.9,2.3s2,1.7,2.7,2.8,1,2.3,1,3.6c0,1.9-.8,3.3-2.4,4.3-1.6,1.1-3.5,1.6-5.7,1.6-2.4,0-4.4-.6-6.2-1.7-1.7-1.1-2.5-2.5-2.5-4.4,0-1.4-.5-2.5-1.4-3.2s-1.9-1.1-3.1-1.1c-1.1,0-2.1.3-2.9,1s-1.3,1.7-1.3,2.9c0,1.4.5,2.6,1.4,3.7.9,1.1,2.2,2,3.7,2.7s3.3,1.2,5.2,1.6c1.9.4,3.9.6,6,.6,3,0,5.8-.4,8.4-1.1,2.6-.7,4.8-2,6.6-3.7,1.8-1.8,2.7-3.9,2.7-6.4-.3-2-.8-3.8-1.7-5.4Z" style="fill: #c9f57e; stroke-width: 0px;"/>
      <path d="M291.17,110.88c-.4,0-.7,0-1-.1s-.5-.2-.7-.3-.3-.3-.4-.5-.2-.5-.3-.6c0-.1-.1-.4-.1-.9,0-.4-.1-.7-.1-1v-27.5h-1c-2.3.7-6,1-10.9,1h-.3v1.8h4.2l-.1,21.9v2c-2.6,2.3-5.2,3.4-7.8,3.4-3.8,0-5.7-2.1-5.7-6.4v-23.8h-1c-2.3.7-6,1-10.9,1h-.3v1.8h4.2l-.1,19.1c0,1.8.2,3.4.5,4.7s.8,2.5,1.6,3.5c.8,1.1,1.8,1.9,3.2,2.4,1.3.5,3,.8,4.9.8,2,0,4-.5,6.2-1.4,2-.9,3.8-1.9,5.3-3,.3,1.5.8,2.5,1.5,3.1.8.6,2.2,1,4.2,1,2.5,0,4.5-.1,5.9-.2h.2v-1.8h-1.2Z" style="fill: #c9f57e; stroke-width: 0px;"/>
      <path d="M321.97,100.68c-.9-1.3-2.1-2.3-3.5-3.2-1.4-.8-2.9-1.7-4.5-2.5s-3.1-1.6-4.5-2.3c-1.3-.7-2.5-1.5-3.4-2.5-.9-.9-1.3-1.9-1.3-2.9,0-1.6.7-2.8,2-3.7,1.4-.9,2.9-1.4,4.7-1.4,1.1,0,2.1.3,3.1.8.9.5,1.4,1.2,1.4,2.3,0,.2-.1.7-.5,1.7-.4.9-.6,1.6-.6,2.1,0,.7.2,1.4.5,1.9s.8.9,1.3,1.2c1.1.6,2.6.5,3.8-.1.6-.3,1.2-.9,1.6-1.6.4-.7.7-1.6.7-2.6,0-2.3-1.2-4.2-3.7-5.6-2.4-1.3-5.3-2-8.6-2-1.3,0-2.5.1-3.8.4-1.2.3-2.4.6-3.5,1.1s-2.1,1.1-2.9,1.8c-.9.7-1.6,1.6-2,2.6-.5,1-.7,2.1-.7,3.2,0,1.4.4,2.8,1.1,4s1.6,2.2,2.7,3.1c1.1.8,2.3,1.6,3.7,2.4,1.3.8,2.6,1.5,3.9,2.1,1.3.7,2.5,1.3,3.6,2,1.1.6,1.9,1.4,2.6,2.2.6.8,1,1.6,1,2.5,0,1.2-.5,2.1-1.5,2.8s-2.2,1-3.7,1c-1.7,0-3.3-.5-4.6-1.4-1.3-.9-1.9-2.2-2-4,0-.8-.3-1.5-.7-2.1-.4-.6-.9-1-1.5-1.3-.6-.2-1.2-.4-1.8-.4-1,0-1.9.3-2.6.9-.7.6-1.1,1.5-1.1,2.5,0,1.2.4,2.3,1.2,3.3.8,1,1.8,1.8,3.1,2.4,1.2.6,2.7,1.1,4.2,1.4,1.6.3,3.2.5,4.9.5s3.3-.2,4.9-.5c1.5-.3,3-.8,4.3-1.5s2.3-1.6,3.1-2.7c.8-1.1,1.1-2.4,1.1-3.8,0-1.4-.5-2.8-1.5-4.1Z" style="fill: #c9f57e; stroke-width: 0px;"/>
      <path d="M353.47,100.68c-.9-1.3-2.1-2.3-3.5-3.2-1.4-.8-2.9-1.7-4.5-2.5s-3.1-1.6-4.5-2.3c-1.3-.7-2.5-1.5-3.4-2.5-.9-.9-1.3-1.9-1.3-2.9,0-1.6.7-2.8,2-3.7,1.4-.9,2.9-1.4,4.7-1.4,1.1,0,2.1.3,3.1.8.9.5,1.4,1.2,1.4,2.3,0,.2-.1.7-.5,1.7-.4.9-.6,1.6-.6,2.1,0,.7.2,1.4.5,1.9s.8.9,1.3,1.2c1.1.6,2.6.5,3.8-.1.6-.3,1.2-.9,1.6-1.6.4-.7.7-1.6.7-2.6,0-2.3-1.2-4.2-3.7-5.6-2.4-1.3-5.3-2-8.6-2-1.3,0-2.5.1-3.8.4-1.2.3-2.4.6-3.5,1.1s-2.1,1.1-2.9,1.8c-.9.7-1.6,1.6-2,2.6-.5,1-.7,2.1-.7,3.2,0,1.4.4,2.8,1.1,4s1.6,2.2,2.7,3.1c1.1.8,2.3,1.6,3.7,2.4,1.3.8,2.6,1.5,3.9,2.1,1.3.7,2.5,1.3,3.6,2,1.1.6,1.9,1.4,2.6,2.2.6.8,1,1.6,1,2.5,0,1.2-.5,2.1-1.5,2.8s-2.2,1-3.7,1c-1.7,0-3.3-.5-4.6-1.4-1.3-.9-1.9-2.2-2-4,0-.8-.3-1.5-.7-2.1-.4-.6-.9-1-1.5-1.3-.6-.2-1.2-.4-1.8-.4-1,0-1.9.3-2.6.9-.7.6-1.1,1.5-1.1,2.5,0,1.2.4,2.3,1.2,3.3.8,1,1.8,1.8,3.1,2.4,1.2.6,2.7,1.1,4.2,1.4,1.6.3,3.2.5,4.9.5s3.3-.2,4.9-.5c1.5-.3,3-.8,4.3-1.5s2.3-1.6,3.1-2.7c.8-1.1,1.1-2.4,1.1-3.8-.1-1.4-.6-2.8-1.5-4.1Z" style="fill: #c9f57e; stroke-width: 0px;"/>
      <path d="M387.47,102.48l-.1.2c-.8,1.4-1.8,2.5-3.2,3.3-1.4.8-2.9,1.2-4.5,1.2-1.5,0-3-.3-4.3-.8s-2.5-1.2-3.4-2.1c-.9-.9-1.8-1.9-2.5-3.1-.7-1.1-1.3-2.4-1.6-3.7-.3-1.3-.5-2.6-.7-4-.1-1.3-.1-2.5.2-3.6h21.2v-.3c0-2.1-.7-3.8-2-5.3-1.3-1.4-3-2.5-4.9-3.1s-4.1-.9-6.6-.9c-2.8,0-5.4.6-7.6,1.8s-3.9,2.8-5,4.7-1.9,4.1-2.4,6.4c-.5,2.3-.5,4.7.1,7,.5,2.3,1.4,4.5,2.5,6.4s2.8,3.5,4.9,4.7,4.5,1.8,7.2,1.8c2.9,0,5.7-.9,8.3-2.7,2.7-1.8,4.6-4.3,5.7-7.4l.1-.2-1.4-.3ZM367.77,88.18c.6-1.8,1.4-3.2,2.6-4.3s2.8-1.7,4.6-1.7c1.9,0,3.4.5,4.2,1.6.8,1,1.4,2.5,1.6,4.4h-13Z" style="fill: #c9f57e; stroke-width: 0px;"/>
      <polygon points="426.47 82.78 426.47 80.98 416.87 80.98 416.87 82.78 420.37 82.78 411.87 94.28 403.67 82.78 406.07 82.78 406.07 80.98 390.87 80.98 390.87 82.78 393.87 82.78 404.27 97.38 394.67 110.88 390.87 110.88 390.87 112.68 400.37 112.68 400.37 110.88 396.97 110.88 405.37 98.88 413.97 110.88 411.87 110.88 411.87 112.68 426.47 112.68 426.47 110.88 423.77 110.88 412.97 95.88 422.57 82.78 426.47 82.78" style="fill: #c9f57e; stroke-width: 0px;"/>
    </g>
  </g>
</svg>
