<?xml version="1.0" encoding="UTF-8"?>
<svg id="Layer_2" data-name="Layer 2" xmlns="http://www.w3.org/2000/svg" viewBox="0 0 719.89 401.83">
  <g id="Layer_1-2" data-name="Layer 1">
    <g>
      <path d="M295.74,274.36c3.21-9.66,6.18-19.37,9.02-29.05,11.18-37.97,20.52-76.48,31.34-114.6-23.21,5.12-47.35,6.65-72.36,3.53-29.27-3.43-58.23-13.31-82.13-30.69-5.09,28.53-14.92,56.26-29.02,81.52-7.28,13.02-15.73,25.36-24.86,37.14,61.45-15.06,128.91.35,168.03,52.16Z" style="fill: none; stroke-width: 0px;"/>
      <path d="M286.6,285.49c-34.77-44.66-95.4-61.04-149.77-50.9-1.8.31-3.59.66-5.37,1.02,5.34,8.1,10.96,15.99,17.02,23.58,14.54,18.13,31.76,34.79,52.38,45.8,16.32,9.15,36.23,12.1,54.35,7.31,12.1-3.31,22.91-9.13,32.87-16.31.73-1.92,1.45-3.85,2.15-5.79-1.18-1.59-2.38-3.16-3.63-4.71Z" style="fill: none; stroke-width: 0px;"/>
      <path d="M615.59,38.9c27.88-7.83,57.07-10.45,86.07-11.28,6.08-.21,12.16-.32,18.23-.36v-11.95c-37.14-1.65-75.46.82-107.89,12.67-39.68,13.95-72.96,45.68-86.89,85.28-19.84,3.17-39.23,10.23-56.29,19.99-26.63,14.54-49.74,34.55-71.73,55.18-26.15,24.28-50.43,50.73-74.95,76.45-4.03,4.21-8.14,8.43-12.37,12.54,17.54-49.49,29.59-100.86,43.97-151.35,33.33-10.12,64.65-27.43,93.78-48.71,33.11-23.34,66.79-51.94,102.16-77.37h-26.58c-3.88,2.99-7.71,6.01-11.49,9.04-48.8,38.88-97.82,83.16-154.61,105.76,5.85-19.93,12.16-39.69,19.41-59.11,7.72-19.45,16.87-38.67,29.12-55.69h-15.33c-18.8,26.67-31.18,58.18-41.43,88.85-3.51,10.72-6.8,21.5-9.95,32.31-25.96,7.87-53.6,10.92-83.59,6.77-26.52-3.57-52.03-13.43-72.73-29.89,2.71-17.35,3.68-34.94,2.78-52.42-.66-15.36-2.65-30.55-5.32-45.63h-4.82c1.47,15.29,2.47,30.55,2.25,45.77-.15,14.85-1.52,29.66-4.06,44.25-4.1-3.96-7.96-8.23-11.52-12.81-18.54-23.93-29.18-53.47-48.02-77.21h-15.87c15.17,14.57,26.04,32.71,37.35,50.67,9.9,15.71,20.93,31.46,35.11,43.82.6.54,1.21,1.07,1.83,1.6-7.01,35.47-20.99,69.47-41.44,99.34-4.14,6.13-8.54,12.09-13.1,17.95-2.56-4.35-5.08-8.72-7.57-13.11-10.45-18.34-24.17-44.8-36.56-61.7C54.41,110.88,29.22,92.66,0,84.65v11.42c4.35,1.5,8.63,3.25,12.78,5.27,43.42,20.25,62.56,66.85,86.68,105.25,3.2,5.19,6.73,10.7,10.57,16.37-1.56,1.91-3.13,3.81-4.71,5.7-8.29,2.77-16.45,5.95-24.39,9.46-25.44,10.87-48.11,25.98-74.52,33.34-2.15.6-4.29,1.11-6.42,1.54v5.92c20.79-2.88,41.16-11.73,60.22-19.68,9.52-4.02,19.13-7.9,28.87-11.43-2.9,3.39-5.8,6.8-8.68,10.23-14.35,17.15-28.19,35.48-36.77,56.34-3.96,9.74-6.91,19.99-8.1,30.45-2.26,19.87,2.68,40.71,14.3,56.99h6.23c-11.05-14.66-16.24-33.17-13.65-53.61,1.69-12.02,6.11-23.8,11.71-34.54,13.92-26.21,36.61-47.87,55.96-70.23.99-1.12,1.98-2.25,2.96-3.39,2.55-.72,5.11-1.39,7.69-2.03,34.13,45.93,85.55,94.56,140.05,77.58,8.41-2.53,16.27-6.17,23.73-10.53-12.12,29.88-27.64,58.17-49.7,81.88-4.9,5.29-10.25,10.27-15.95,14.88h14.56c30.19-25.53,51.04-61.07,66.21-97.7,17.57,28.78,27.45,61.93,35.27,94.64.24,1.02.48,2.04.72,3.06h4.57c-4.7-39.11-13.44-78.33-33.98-112.03,7.5-6.09,14.65-12.63,21.63-19.12,16.79-15.65,35.01-33.16,51.87-48.73,30.16-27.4,60.07-56.24,96.36-75.37,13.93-7.41,29.01-13.11,44.39-16.34-7.21,33.64-1.68,75.27,28.01,96.96,21.71,16.1,49.58,17.17,74.81,22.37,15.32,3.21,30.08,8.47,41.13,19.56,13.53,13.18,15.91,33.71,10.63,51.37-3.27,11.5-9.14,22.15-15.65,32.19-.72,1.1-1.47,2.19-2.21,3.28-32.07-21.32-60.68-51.3-91.8-70.76-2.44-1.44-7.17-4.22-9.55-5.62-5.15-2.63-10.34-5.35-15.65-7.68-43.38-19.51-97.51-16.16-130.51,21.18-22.97,25.83-32.1,61.37-35.65,94.77-.49,4.65-.88,9.3-1.21,13.96h10.8c4.4-29.52,11.08-59.34,27.38-84.55,27.52-43.41,78.72-51.58,124.35-33.6,4.76,1.86,10.42,4.42,15.13,6.43,2.29,1.14,7.07,3.58,9.35,4.72,24.68,13.09,48.36,31.29,70.92,47.85,7.84,5.75,15.8,11.49,23.97,16.92-9.11,13.06-19.39,25.55-29.74,37.63-1.33,1.54-2.68,3.07-4.02,4.6h12.58c.92-.91,1.86-1.81,2.77-2.73,10.21-10.39,20.23-21.07,29.2-32.59,9.24,5.65,18.78,10.78,28.75,15,8.16,3.57,16.82,6.17,25.65,7.67v-8.32c-.08,0-.17-.01-.25-.02-18.55-2-35.45-8.71-51.39-17.95,3.3-4.42,6.44-8.96,9.36-13.66,25.53-39.27,21.12-87.1-25.48-106.81-31.19-13.6-67.83-6.62-96.89-25-22.32-14.33-31.72-42.22-31.48-67.86.08-7.04.74-13.82,1.95-20.33,30.9-5.33,62.62-.44,88.42,20.7,28.37,23.1,46.81,56.32,71.98,82.86,10.39,11.55,21.79,22.13,33.78,32.01v-9.53c-.94-.93-1.9-1.84-2.83-2.78-16.69-16.66-31.1-35.05-44.74-54.26-16.52-23.25-32.71-48.21-56.4-65.34-24.93-18.75-55.65-24.13-85.7-20.37,13.11-36.78,45.06-62.74,85.37-73.63ZM152.58,185.06c14.1-25.25,23.93-52.99,29.02-81.52,23.9,17.38,52.86,27.26,82.13,30.69,25.01,3.12,49.15,1.59,72.36-3.53-10.82,38.13-20.16,76.63-31.34,114.6-2.84,9.68-5.81,19.39-9.02,29.05-39.12-51.81-106.58-67.22-168.03-52.16,9.13-11.78,17.58-24.11,24.86-37.14ZM255.2,312.3c-18.12,4.78-38.03,1.84-54.35-7.31-20.62-11.01-37.84-27.67-52.38-45.8-6.06-7.58-11.68-15.48-17.02-23.58,1.79-.36,3.58-.7,5.37-1.02,54.37-10.14,115,6.24,149.77,50.9,1.24,1.55,2.44,3.12,3.63,4.71-.71,1.93-1.42,3.86-2.15,5.79-9.96,7.18-20.78,13-32.87,16.31Z" style="fill: #2f6d7b; stroke-width: 0px;"/>
    </g>
  </g>
</svg>
